<svg xmlns="http://www.w3.org/2000/svg" viewBox="0 0 760 180" role="img" aria-label="JVT Technologies logo">
  <defs>
    <linearGradient id="lockupWord" x1="0%" y1="0%" x2="100%" y2="0%">
      <stop offset="0%" stop-color="#12211b" />
      <stop offset="100%" stop-color="#0a5146" />
    </linearGradient>
  </defs>
  <rect width="760" height="180" fill="none" />
  <g transform="translate(6,6)">
    <rect x="0" y="0" width="118" height="118" rx="34" fill="#0d6c60" />
    <rect x="0" y="0" width="118" height="118" rx="34" fill="url(#lockupWord)" opacity="0.22" />
    <path d="M28 27v38c0 10 4 15 12 15 7 0 12-4 12-11V27" fill="none" stroke="#fff8ee" stroke-width="8" stroke-linecap="round" stroke-linejoin="round"/>
    <path d="M53 27l14 54 15-54" fill="none" stroke="#fff8ee" stroke-width="8" stroke-linecap="round" stroke-linejoin="round"/>
    <path d="M73 27h27M86 27v54" fill="none" stroke="#fff8ee" stroke-width="8" stroke-linecap="round" stroke-linejoin="round"/>
    <circle cx="18" cy="96" r="5" fill="#f2c98d" />
    <path d="M18 96c17-19 31-27 42-28" fill="none" stroke="#f2c98d" stroke-width="2.4" stroke-linecap="round" opacity="0.75"/>
  </g>
  <g transform="translate(154,36)">
    <text x="0" y="32" fill="url(#lockupWord)" font-family="Iowan Old Style, Palatino Linotype, Georgia, serif" font-size="58" font-weight="700" letter-spacing="-1.2">
      JVT Technologies
    </text>
    <text x="2" y="76" fill="#4f5f59" font-family="Avenir Next, Segoe UI, sans-serif" font-size="20" letter-spacing="5">
      PRIVATE AI SYSTEMS AND WORKFLOW AUTOMATION
    </text>
    <text x="2" y="118" fill="#6b7a74" font-family="Avenir Next, Segoe UI, sans-serif" font-size="21">
      Flagship solution: grounded document intelligence for high-trust teams
    </text>
  </g>
</svg>
