<svg xmlns="http://www.w3.org/2000/svg" viewBox="0 0 760 180" role="img" aria-label="JVT Technologies logo">
  <defs>
    <linearGradient id="lockupWordLight" x1="0%" y1="0%" x2="100%" y2="0%">
      <stop offset="0%" stop-color="#fff8ee" />
      <stop offset="100%" stop-color="#f2c98d" />
    </linearGradient>
  </defs>
  <rect width="760" height="180" fill="none" />
  <g transform="translate(6,6)">
    <rect x="0" y="0" width="118" height="118" rx="34" fill="#0d6c60" />
    <rect x="0" y="0" width="118" height="118" rx="34" fill="url(#lockupWordLight)" opacity="0.18" />
    <path d="M40 27v41c0 10-5 15-14 15-6 0-11-3-15-8" fill="none" stroke="#fff8ee" stroke-width="8" stroke-linecap="round" stroke-linejoin="round"/>
    <path d="M53 27l14 54 15-54" fill="none" stroke="#fff8ee" stroke-width="8" stroke-linecap="round" stroke-linejoin="round"/>
    <path d="M73 27h27M86 27v54" fill="none" stroke="#fff8ee" stroke-width="8" stroke-linecap="round" stroke-linejoin="round"/>
    <circle cx="18" cy="96" r="5" fill="#f2c98d" />
    <path d="M18 96c17-19 31-27 42-28" fill="none" stroke="#f2c98d" stroke-width="2.4" stroke-linecap="round" opacity="0.75"/>
  </g>
  <g transform="translate(154,36)">
    <text x="0" y="32" fill="url(#lockupWordLight)" font-family="Iowan Old Style, Palatino Linotype, Georgia, serif" font-size="58" font-weight="700" letter-spacing="-1.2">
      JVT Technologies
    </text>
    <text x="2" y="76" fill="#f1dfc8" font-family="Avenir Next, Segoe UI, sans-serif" font-size="20" letter-spacing="5" opacity="0.88">
      PRIVATE AI SYSTEMS AND WORKFLOW AUTOMATION
    </text>
    <text x="2" y="118" fill="#f1dfc8" font-family="Avenir Next, Segoe UI, sans-serif" font-size="21" opacity="0.72">
      Flagship solution: grounded document intelligence for high-trust teams
    </text>
  </g>
</svg>
