<svg xmlns="http://www.w3.org/2000/svg" viewBox="0 0 1200 630" role="img" aria-label="JVT Technologies preview">
  <defs>
    <radialGradient id="pine" cx="22%" cy="12%" r="72%">
      <stop stop-color="#0d7467" stop-opacity="0.48" />
      <stop offset="1" stop-color="#050506" stop-opacity="0" />
    </radialGradient>
    <radialGradient id="gold" cx="88%" cy="82%" r="68%">
      <stop stop-color="#f2c98d" stop-opacity="0.25" />
      <stop offset="1" stop-color="#050506" stop-opacity="0" />
    </radialGradient>
    <linearGradient id="word" x1="90" y1="120" x2="760" y2="520" gradientUnits="userSpaceOnUse">
      <stop stop-color="#fff8ee" />
      <stop offset="1" stop-color="#f2c98d" />
    </linearGradient>
  </defs>
  <rect width="1200" height="630" fill="#050506" />
  <rect width="1200" height="630" fill="url(#pine)" />
  <rect width="1200" height="630" fill="url(#gold)" />
  <g fill="none" stroke="#fff8ee" stroke-opacity="0.06">
    <path d="M0 116h1200M0 236h1200M0 356h1200M0 476h1200M130 0v630M310 0v630M490 0v630M670 0v630M850 0v630M1030 0v630" />
  </g>
  <text x="90" y="112" fill="#f2c98d" font-family="Avenir Next, Helvetica, sans-serif" font-size="23" font-weight="800" letter-spacing="5">JVT TECHNOLOGIES LLC</text>
  <text x="90" y="246" fill="url(#word)" font-family="Iowan Old Style, Georgia, serif" font-size="82" font-weight="700" letter-spacing="-4">Reviewed work systems</text>
  <text x="90" y="340" fill="url(#word)" font-family="Iowan Old Style, Georgia, serif" font-size="82" font-weight="700" letter-spacing="-4">for document-heavy teams.</text>
  <text x="94" y="430" fill="#fff8ee" fill-opacity="0.74" font-family="Avenir Next, Helvetica, sans-serif" font-size="30">Calls, inboxes, meetings, and documents turned into work a person can approve.</text>
  <g transform="translate(870,150)">
    <rect x="0" y="0" width="238" height="238" rx="54" fill="#0d7467" />
    <rect x="7" y="7" width="224" height="224" rx="49" fill="none" stroke="#fff8ee" stroke-opacity="0.16" stroke-width="3" />
    <path d="M52 48h-18v48M186 48h18v48M52 190h-18v-48M186 190h18v-48" fill="none" stroke="#f2c98d" stroke-width="7" stroke-linecap="round" />
    <text x="119" y="140" text-anchor="middle" fill="#fff8ee" font-family="Iowan Old Style, Georgia, serif" font-size="82" font-weight="700" letter-spacing="-5">JVT</text>
    <path d="M68 158h102" stroke="#f2c98d" stroke-width="5" stroke-linecap="round" />
  </g>
</svg>
